<?xml version="1.0" encoding="UTF-8"?>
<svg xmlns="http://www.w3.org/2000/svg" xmlns:xlink="http://www.w3.org/1999/xlink" width="45px" height="45px" viewBox="0 0 45 45" version="1.1">
<g id="surface1">
<path style=" stroke:none;fill-rule:nonzero;fill:rgb(0%,0%,0%);fill-opacity:1;" d="M 11.773438 5.625 C 17.84375 5.625 21.097656 12.171875 22.5 15.058594 C 23.90625 12.15625 27.128906 5.644531 33.234375 5.644531 C 37.09375 5.644531 41.25 8.097656 41.25 13.484375 C 41.25 19.9375 32.355469 28.207031 22.5 37.859375 C 12.640625 28.203125 3.75 19.9375 3.75 13.484375 C 3.75 8.46875 7.433594 5.625 11.773438 5.625 Z M 11.777344 1.875 C 5.808594 1.875 0 5.976562 0 13.484375 C 0 22.222656 10.445312 31.160156 22.5 43.125 C 34.554688 31.160156 45 22.222656 45 13.484375 C 45 5.964844 39.191406 1.894531 33.234375 1.894531 C 29.105469 1.894531 24.898438 3.847656 22.5 7.964844 C 20.089844 3.828125 15.894531 1.875 11.777344 1.875 Z M 11.777344 1.875 "/>
</g>
</svg>
